<?xml version="1.0" standalone="yes"?>

<svg version="1.1" viewBox="0.0 0.0 691.0 339.0" fill="none" stroke="none" stroke-linecap="square" stroke-miterlimit="10" xmlns="http://www.w3.org/2000/svg" xmlns:xlink="http://www.w3.org/1999/xlink"><clipPath id="p.0"><path d="m0 0l691.0 0l0 339.0l-691.0 0l0 -339.0z" clip-rule="nonzero"></path></clipPath><g clip-path="url(#p.0)"><path fill="#000000" fill-opacity="0.0" d="m0 0l691.9239 0l0 339.62204l-691.9239 0z" fill-rule="nonzero"></path><path fill="#ffe599" d="m242.6378 0l201.5118 0l0 287.55905l-201.5118 0z" fill-rule="nonzero"></path><path stroke="#000000" stroke-width="2.0" stroke-linejoin="round" stroke-linecap="butt" d="m242.6378 0l201.5118 0l0 287.55905l-201.5118 0z" fill-rule="nonzero"></path><path fill="#000000" d="m316.77884 22.544998l1.6875 -0.140625q0.125 1.015625 0.5625 1.671875q0.4375 0.65625 1.359375 1.0625q0.9375 0.40625 2.09375 0.40625q1.03125 0 1.8125 -0.3125q0.796875 -0.3125 1.1875 -0.84375q0.390625 -0.53125 0.390625 -1.15625q0 -0.640625 -0.375 -1.109375q-0.375 -0.484375 -1.234375 -0.8125q-0.546875 -0.21875 -2.421875 -0.65625q-1.875 -0.453125 -2.625 -0.859375q-0.96875 -0.515625 -1.453125 -1.265625q-0.46875 -0.75 -0.46875 -1.6875q0 -1.03125 0.578125 -1.921875q0.59375 -0.90625 1.703125 -1.359375q1.125 -0.46875 2.5 -0.46875q1.515625 0 2.671875 0.484375q1.15625 0.484375 1.765625 1.4375q0.625 0.9375 0.671875 2.140625l-1.71875 0.125q-0.140625 -1.28125 -0.953125 -1.9375q-0.796875 -0.671875 -2.359375 -0.671875q-1.625 0 -2.375 0.609375q-0.75 0.59375 -0.75 1.4375q0 0.734375 0.53125 1.203125q0.515625 0.46875 2.703125 0.96875q2.203125 0.5 3.015625 0.875q1.1875 0.546875 1.75 1.390625q0.578125 0.828125 0.578125 1.921875q0 1.09375 -0.625 2.0625q-0.625 0.953125 -1.796875 1.484375q-1.15625 0.53125 -2.609375 0.53125q-1.84375 0 -3.09375 -0.53125q-1.25 -0.546875 -1.96875 -1.625q-0.703125 -1.078125 -0.734375 -2.453125zm19.584198 1.203125l1.71875 0.21875q-0.40625 1.5 -1.515625 2.34375q-1.09375 0.828125 -2.8125 0.828125q-2.15625 0 -3.421875 -1.328125q-1.265625 -1.328125 -1.265625 -3.734375q0 -2.484375 1.265625 -3.859375q1.28125 -1.375 3.328125 -1.375q1.984375 0 3.234375 1.34375q1.25 1.34375 1.25 3.796875q0 0.140625 -0.015625 0.4375l-7.34375 0q0.09375 1.625 0.921875 2.484375q0.828125 0.859375 2.0625 0.859375q0.90625 0 1.546875 -0.46875q0.65625 -0.484375 1.046875 -1.546875zm-5.484375 -2.703125l5.5 0q-0.109375 -1.234375 -0.625 -1.859375q-0.796875 -0.96875 -2.078125 -0.96875q-1.140625 0 -1.9375 0.78125q-0.78125 0.765625 -0.859375 2.046875zm9.094452 5.875l0 -9.859375l1.5 0l0 1.5q0.578125 -1.046875 1.0625 -1.375q0.484375 -0.34375 1.078125 -0.34375q0.84375 0 1.71875 0.546875l-0.578125 1.546875q-0.609375 -0.359375 -1.234375 -0.359375q-0.546875 0 -0.984375 0.328125q-0.421875 0.328125 -0.609375 0.90625q-0.28125 0.890625 -0.28125 1.953125l0 5.15625l-1.671875 0zm8.962677 0l-3.75 -9.859375l1.765625 0l2.125 5.90625q0.34375 0.953125 0.625 1.984375q0.21875 -0.78125 0.625 -1.875l2.1875 -6.015625l1.71875 0l-3.734375 9.859375l-1.5625 0zm13.34375 -3.171875l1.71875 0.21875q-0.40625 1.5 -1.515625 2.34375q-1.09375 0.828125 -2.8125 0.828125q-2.15625 0 -3.421875 -1.328125q-1.265625 -1.328125 -1.265625 -3.734375q0 -2.484375 1.265625 -3.859375q1.28125 -1.375 3.328125 -1.375q1.984375 0 3.234375 1.34375q1.25 1.34375 1.25 3.796875q0 0.140625 -0.015625 0.4375l-7.34375 0q0.09375 1.625 0.921875 2.484375q0.828125 0.859375 2.0625 0.859375q0.90625 0 1.546875 -0.46875q0.65625 -0.484375 1.046875 -1.546875zm-5.484375 -2.703125l5.5 0q-0.109375 -1.234375 -0.625 -1.859375q-0.796875 -0.96875 -2.078125 -0.96875q-1.140625 0 -1.9375 0.78125q-0.78125 0.765625 -0.859375 2.046875zm9.094482 5.875l0 -9.859375l1.5 0l0 1.5q0.578125 -1.046875 1.0625 -1.375q0.484375 -0.34375 1.078125 -0.34375q0.84375 0 1.71875 0.546875l-0.578125 1.546875q-0.609375 -0.359375 -1.234375 -0.359375q-0.546875 0 -0.984375 0.328125q-0.421875 0.328125 -0.609375 0.90625q-0.28125 0.890625 -0.28125 1.953125l0 5.15625l-1.671875 0z" fill-rule="nonzero"></path><path fill="#cfe2f3" d="m515.6063 135.39633l171.18109 0l0 72.45143l-171.18109 0z" fill-rule="nonzero"></path><path stroke="#000000" stroke-width="2.0" stroke-linejoin="round" stroke-linecap="butt" d="m515.6063 135.39633l171.18109 0l0 72.45143l-171.18109 0z" fill-rule="nonzero"></path><path fill="#000000" d="m537.25415 178.54205l0 -13.59375l1.796875 0l0 11.984375l6.703125 0l0 1.609375l-8.5 0zm10.250732 -11.6875l0 -1.90625l1.671875 0l0 1.90625l-1.671875 0zm0 11.6875l0 -9.859375l1.671875 0l0 9.859375l-1.671875 0zm3.4573364 -2.9375l1.65625 -0.265625q0.140625 1.0 0.765625 1.53125q0.640625 0.515625 1.78125 0.515625q1.15625 0 1.703125 -0.46875q0.5625 -0.46875 0.5625 -1.09375q0 -0.5625 -0.484375 -0.890625q-0.34375 -0.21875 -1.703125 -0.5625q-1.84375 -0.46875 -2.5625 -0.796875q-0.703125 -0.34375 -1.078125 -0.9375q-0.359375 -0.609375 -0.359375 -1.328125q0 -0.65625 0.296875 -1.21875q0.3125 -0.5625 0.828125 -0.9375q0.390625 -0.28125 1.0625 -0.484375q0.671875 -0.203125 1.4375 -0.203125q1.171875 0 2.046875 0.34375q0.875 0.328125 1.28125 0.90625q0.421875 0.5625 0.578125 1.515625l-1.625 0.21875q-0.109375 -0.75 -0.65625 -1.171875q-0.53125 -0.4375 -1.5 -0.4375q-1.15625 0 -1.640625 0.390625q-0.484375 0.375 -0.484375 0.875q0 0.328125 0.203125 0.59375q0.203125 0.265625 0.640625 0.4375q0.25 0.09375 1.46875 0.4375q1.765625 0.46875 2.46875 0.765625q0.703125 0.296875 1.09375 0.875q0.40625 0.578125 0.40625 1.4375q0 0.828125 -0.484375 1.578125q-0.484375 0.734375 -1.40625 1.140625q-0.921875 0.390625 -2.078125 0.390625q-1.921875 0 -2.9375 -0.796875q-1.0 -0.796875 -1.28125 -2.359375zm13.65625 1.4375l0.234375 1.484375q-0.703125 0.140625 -1.265625 0.140625q-0.90625 0 -1.40625 -0.28125q-0.5 -0.296875 -0.703125 -0.75q-0.203125 -0.46875 -0.203125 -1.984375l0 -5.65625l-1.234375 0l0 -1.3125l1.234375 0l0 -2.4375l1.65625 -1.0l0 3.4375l1.6875 0l0 1.3125l-1.6875 0l0 5.75q0 0.71875 0.078125 0.921875q0.09375 0.203125 0.296875 0.328125q0.203125 0.125 0.578125 0.125q0.265625 0 0.734375 -0.078125zm16.632202 -3.265625l1.796875 0.453125q-0.5625 2.21875 -2.03125 3.390625q-1.46875 1.15625 -3.59375 1.15625q-2.203125 0 -3.578125 -0.890625q-1.375 -0.90625 -2.09375 -2.59375q-0.71875 -1.703125 -0.71875 -3.65625q0 -2.125 0.796875 -3.703125q0.8125 -1.578125 2.3125 -2.390625q1.5 -0.828125 3.296875 -0.828125q2.046875 0 3.4375 1.046875q1.390625 1.03125 1.9375 2.90625l-1.765625 0.421875q-0.46875 -1.484375 -1.375 -2.15625q-0.90625 -0.6875 -2.265625 -0.6875q-1.5625 0 -2.625 0.75q-1.046875 0.75 -1.484375 2.03125q-0.421875 1.265625 -0.421875 2.609375q0 1.734375 0.5 3.03125q0.515625 1.28125 1.578125 1.921875q1.078125 0.640625 2.3125 0.640625q1.515625 0 2.5625 -0.859375q1.046875 -0.875 1.421875 -2.59375zm2.9260864 -0.15625q0 -2.734375 1.53125 -4.0625q1.265625 -1.09375 3.09375 -1.09375q2.03125 0 3.3125 1.34375q1.296875 1.328125 1.296875 3.671875q0 1.90625 -0.578125 3.0q-0.5625 1.078125 -1.65625 1.6875q-1.078125 0.59375 -2.375 0.59375q-2.0625 0 -3.34375 -1.328125q-1.28125 -1.328125 -1.28125 -3.8125zm1.71875 0q0 1.890625 0.828125 2.828125q0.828125 0.9375 2.078125 0.9375q1.25 0 2.0625 -0.9375q0.828125 -0.953125 0.828125 -2.890625q0 -1.828125 -0.828125 -2.765625q-0.828125 -0.9375 -2.0625 -0.9375q-1.25 0 -2.078125 0.9375q-0.828125 0.9375 -0.828125 2.828125zm9.281982 4.921875l0 -9.859375l1.5 0l0 1.390625q0.453125 -0.71875 1.21875 -1.15625q0.78125 -0.453125 1.765625 -0.453125q1.09375 0 1.796875 0.453125q0.703125 0.453125 0.984375 1.28125q1.171875 -1.734375 3.046875 -1.734375q1.46875 0 2.25 0.8125q0.796875 0.8125 0.796875 2.5l0 6.765625l-1.671875 0l0 -6.203125q0 -1.0 -0.15625 -1.4375q-0.15625 -0.453125 -0.59375 -0.71875q-0.421875 -0.265625 -1.0 -0.265625q-1.03125 0 -1.71875 0.6875q-0.6875 0.6875 -0.6875 2.21875l0 5.71875l-1.671875 0l0 -6.40625q0 -1.109375 -0.40625 -1.65625q-0.40625 -0.5625 -1.34375 -0.5625q-0.703125 0 -1.3125 0.375q-0.59375 0.359375 -0.859375 1.078125q-0.265625 0.71875 -0.265625 2.0625l0 5.109375l-1.671875 0zm15.5407715 3.78125l0 -13.640625l1.53125 0l0 1.28125q0.53125 -0.75 1.203125 -1.125q0.6875 -0.375 1.640625 -0.375q1.265625 0 2.234375 0.65625q0.96875 0.640625 1.453125 1.828125q0.5 1.1875 0.5 2.59375q0 1.515625 -0.546875 2.734375q-0.546875 1.203125 -1.578125 1.84375q-1.03125 0.640625 -2.171875 0.640625q-0.84375 0 -1.515625 -0.34375q-0.65625 -0.359375 -1.078125 -0.890625l0 4.796875l-1.671875 0zm1.515625 -8.65625q0 1.90625 0.765625 2.8125q0.78125 0.90625 1.875 0.90625q1.109375 0 1.890625 -0.9375q0.796875 -0.9375 0.796875 -2.921875q0 -1.875 -0.78125 -2.8125q-0.765625 -0.9375 -1.84375 -0.9375q-1.0625 0 -1.890625 1.0q-0.8125 1.0 -0.8125 2.890625zm8.235107 -0.046875q0 -2.734375 1.53125 -4.0625q1.265625 -1.09375 3.09375 -1.09375q2.03125 0 3.3125 1.34375q1.296875 1.328125 1.296875 3.671875q0 1.90625 -0.578125 3.0q-0.5625 1.078125 -1.65625 1.6875q-1.078125 0.59375 -2.375 0.59375q-2.0625 0 -3.34375 -1.328125q-1.28125 -1.328125 -1.28125 -3.8125zm1.71875 0q0 1.890625 0.828125 2.828125q0.828125 0.9375 2.078125 0.9375q1.25 0 2.0625 -0.9375q0.828125 -0.953125 0.828125 -2.890625q0 -1.828125 -0.828125 -2.765625q-0.828125 -0.9375 -2.0625 -0.9375q-1.25 0 -2.078125 0.9375q-0.828125 0.9375 -0.828125 2.828125zm9.281982 4.921875l0 -9.859375l1.5 0l0 1.40625q1.09375 -1.625 3.140625 -1.625q0.890625 0 1.640625 0.328125q0.75 0.3125 1.109375 0.84375q0.375 0.515625 0.53125 1.21875q0.09375 0.46875 0.09375 1.625l0 6.0625l-1.671875 0l0 -6.0q0 -1.015625 -0.203125 -1.515625q-0.1875 -0.515625 -0.6875 -0.8125q-0.5 -0.296875 -1.171875 -0.296875q-1.0625 0 -1.84375 0.671875q-0.765625 0.671875 -0.765625 2.578125l0 5.375l-1.671875 0zm17.125732 -3.171875l1.71875 0.21875q-0.40625 1.5 -1.515625 2.34375q-1.09375 0.828125 -2.8125 0.828125q-2.15625 0 -3.421936 -1.328125q-1.265625 -1.328125 -1.265625 -3.734375q0 -2.484375 1.265625 -3.859375q1.281311 -1.375 3.328186 -1.375q1.984375 0 3.234375 1.34375q1.25 1.34375 1.25 3.796875q0 0.140625 -0.015625 0.4375l-7.343811 0q0.09375 1.625 0.92193604 2.484375q0.828125 0.859375 2.0625 0.859375q0.90625 0 1.546875 -0.46875q0.65625 -0.484375 1.046875 -1.546875zm-5.484436 -2.703125l5.500061 0q-0.109375 -1.234375 -0.625 -1.859375q-0.796875 -0.96875 -2.078125 -0.96875q-1.140625 0 -1.9375 0.78125q-0.78131104 0.765625 -0.85943604 2.046875zm9.110107 5.875l0 -9.859375l1.5 0l0 1.40625q1.09375 -1.625 3.140625 -1.625q0.890625 0 1.640625 0.328125q0.75 0.3125 1.109375 0.84375q0.375 0.515625 0.53125 1.21875q0.09375 0.46875 0.09375 1.625l0 6.0625l-1.671875 0l0 -6.0q0 -1.015625 -0.203125 -1.515625q-0.1875 -0.515625 -0.6875 -0.8125q-0.5 -0.296875 -1.171875 -0.296875q-1.0625 0 -1.84375 0.671875q-0.765625 0.671875 -0.765625 2.578125l0 5.375l-1.671875 0zm14.031982 -1.5l0.234375 1.484375q-0.703125 0.140625 -1.265625 0.140625q-0.90625 0 -1.40625 -0.28125q-0.5 -0.296875 -0.703125 -0.75q-0.203125 -0.46875 -0.203125 -1.984375l0 -5.65625l-1.234375 0l0 -1.3125l1.234375 0l0 -2.4375l1.65625 -1.0l0 3.4375l1.6875 0l0 1.3125l-1.6875 0l0 5.75q0 0.71875 0.078125 0.921875q0.09375 0.203125 0.296875 0.328125q0.203125 0.125 0.578125 0.125q0.265625 0 0.734375 -0.078125z" fill-rule="nonzero"></path><path fill="#cfe2f3" d="m0 171.62204l0 0c0 -20.004013 38.320194 -36.22046 85.59055 -36.22046l0 0c47.270348 0 85.59055 16.216446 85.59055 36.22046l0 0c0 20.004028 -38.320206 36.220474 -85.59055 36.220474l0 0c-47.27036 0 -85.59055 -16.216446 -85.59055 -36.220474z" fill-rule="nonzero"></path><path stroke="#000000" stroke-width="2.0" stroke-linejoin="round" stroke-linecap="butt" d="m0 171.62204l0 0c0 -20.004013 38.320194 -36.22046 85.59055 -36.22046l0 0c47.270348 0 85.59055 16.216446 85.59055 36.22046l0 0c0 20.004028 -38.320206 36.220474 -85.59055 36.220474l0 0c-47.27036 0 -85.59055 -16.216446 -85.59055 -36.220474z" fill-rule="nonzero"></path><path fill="#000000" d="m37.957497 176.09267l0 -7.34375l-0.828125 0q-0.21875 0 -0.3125 -0.078125q-0.09375 -0.09375 -0.09375 -0.234375q0 -0.140625 0.09375 -0.21875q0.09375 -0.078125 0.3125 -0.078125l3.875 0q1.140625 0 1.859375 0.65625q0.71875 0.65625 0.71875 1.5625q0 1.125 -1.203125 1.8125q0.96875 0.34375 1.40625 0.921875q0.453125 0.5625 0.453125 1.265625q0 0.609375 -0.296875 1.125q-0.296875 0.5 -0.90625 0.859375q-0.59375 0.359375 -1.3125 0.359375l-4.59375 0q-0.21875 0 -0.3125 -0.078125q-0.09375 -0.09375 -0.09375 -0.234375q0 -0.140625 0.09375 -0.21875q0.09375 -0.078125 0.3125 -0.078125l0.828125 0zm0.609375 -4.15625l2.1875 0q0.6875 0 1.265625 -0.25q0.453125 -0.203125 0.703125 -0.59375q0.25 -0.390625 0.25 -0.796875q0 -0.578125 -0.546875 -1.0625q-0.546875 -0.484375 -1.421875 -0.484375l-2.4375 0l0 3.1875zm0 4.15625l3.125 0q0.59375 0 1.03125 -0.265625q0.4375 -0.265625 0.65625 -0.65625q0.234375 -0.390625 0.234375 -0.8125q0 -0.46875 -0.328125 -0.90625q-0.328125 -0.4375 -0.90625 -0.65625q-0.578125 -0.234375 -1.59375 -0.234375l-2.21875 0l0 3.53125zm12.782715 0.609375l0 -0.890625q-1.34375 1.125 -2.859375 1.125q-1.109375 0 -1.734375 -0.546875q-0.609375 -0.5625 -0.609375 -1.375q0 -0.890625 0.8125 -1.5625q0.828125 -0.671875 2.390625 -0.671875q0.421875 0 0.921875 0.0625q0.5 0.046875 1.078125 0.171875l0 -1.0q0 -0.5 -0.46875 -0.875q-0.46875 -0.375 -1.40625 -0.375q-0.71875 0 -2.015625 0.421875q-0.234375 0.0625 -0.296875 0.0625q-0.109375 0 -0.203125 -0.078125q-0.078125 -0.09375 -0.078125 -0.21875q0 -0.125 0.078125 -0.203125q0.09375 -0.109375 0.828125 -0.296875q1.140625 -0.3125 1.71875 -0.3125q1.171875 0 1.8125 0.578125q0.65625 0.578125 0.65625 1.296875l0 4.078125l0.828125 0q0.21875 0 0.3125 0.078125q0.09375 0.078125 0.09375 0.21875q0 0.140625 -0.09375 0.234375q-0.09375 0.078125 -0.3125 0.078125l-1.453125 0zm0 -3.0625q-0.421875 -0.125 -0.90625 -0.171875q-0.484375 -0.0625 -1.015625 -0.0625q-1.34375 0 -2.109375 0.578125q-0.5625 0.421875 -0.5625 1.03125q0 0.546875 0.4375 0.9375q0.4375 0.375 1.265625 0.375q0.796875 0 1.484375 -0.3125q0.6875 -0.328125 1.40625 -1.015625l0 -1.359375zm9.79834 -2.65625l0 -0.203125q0 -0.234375 0.09375 -0.328125q0.09375 -0.09375 0.21875 -0.09375q0.140625 0 0.21875 0.09375q0.09375 0.09375 0.09375 0.328125l0 1.390625q0 0.21875 -0.09375 0.328125q-0.078125 0.09375 -0.21875 0.09375q-0.125 0 -0.21875 -0.078125q-0.078125 -0.09375 -0.09375 -0.296875q-0.03125 -0.515625 -0.671875 -0.984375q-0.640625 -0.46875 -1.734375 -0.46875q-1.375 0 -2.078125 0.859375q-0.703125 0.859375 -0.703125 1.953125q0 1.203125 0.78125 1.984375q0.78125 0.765625 2.03125 0.765625q0.703125 0 1.453125 -0.265625q0.75 -0.265625 1.34375 -0.84375q0.15625 -0.15625 0.265625 -0.15625q0.125 0 0.203125 0.09375q0.09375 0.078125 0.09375 0.203125q0 0.3125 -0.734375 0.796875q-1.203125 0.78125 -2.65625 0.78125q-1.484375 0 -2.453125 -0.9375q-0.953125 -0.953125 -0.953125 -2.40625q0 -1.484375 0.96875 -2.46875q0.984375 -0.984375 2.46875 -0.984375q1.421875 0 2.375 0.84375zm9.876465 2.5625q0 1.40625 -1.015625 2.40625q-1.0 0.984375 -2.421875 0.984375q-1.4375 0 -2.4375 -1.0q-1.0 -1.0 -1.0 -2.390625q0 -1.40625 1.0 -2.40625q1.0 -1.0 2.4375 -1.0q1.421875 0 2.421875 1.0q1.015625 0.984375 1.015625 2.40625zm-0.625 0q0 -1.15625 -0.828125 -1.96875q-0.8125 -0.8125 -1.984375 -0.8125q-1.171875 0 -2.0 0.8125q-0.828125 0.8125 -0.828125 1.96875q0 1.140625 0.828125 1.96875q0.828125 0.8125 2.0 0.8125q1.171875 0 1.984375 -0.8125q0.828125 -0.8125 0.828125 -1.96875zm4.20459 -3.1875l0 0.9375q0.640625 -0.65625 1.15625 -0.90625q0.53125 -0.25 1.171875 -0.25q0.703125 0 1.28125 0.296875q0.421875 0.21875 0.75 0.734375q0.328125 0.5 0.328125 1.046875l0 3.875l0.53125 0q0.21875 0 0.3125 0.078125q0.09375 0.078125 0.09375 0.21875q0 0.140625 -0.09375 0.234375q-0.09375 0.078125 -0.3125 0.078125l-1.65625 0q-0.21875 0 -0.328125 -0.078125q-0.09375 -0.09375 -0.09375 -0.234375q0 -0.140625 0.09375 -0.21875q0.109375 -0.078125 0.328125 -0.078125l0.515625 0l0 -3.78125q0 -0.65625 -0.484375 -1.09375q-0.46875 -0.453125 -1.265625 -0.453125q-0.609375 0 -1.0625 0.25q-0.4375 0.234375 -1.265625 1.21875l0 3.859375l0.6875 0q0.21875 0 0.3125 0.078125q0.109375 0.078125 0.109375 0.21875q0 0.140625 -0.109375 0.234375q-0.09375 0.078125 -0.3125 0.078125l-2.0 0q-0.21875 0 -0.3125 -0.078125q-0.09375 -0.09375 -0.09375 -0.234375q0 -0.140625 0.09375 -0.21875q0.09375 -0.078125 0.3125 -0.078125l0.6875 0l0 -5.109375l-0.515625 0q-0.21875 0 -0.3125 -0.078125q-0.09375 -0.09375 -0.09375 -0.234375q0 -0.140625 0.09375 -0.21875q0.09375 -0.09375 0.3125 -0.09375l1.140625 0zm10.86084 4.578125l0.265625 0q0.40625 0 0.6875 0.296875q0.296875 0.28125 0.296875 0.6875q0 0.421875 -0.296875 0.71875q-0.28125 0.28125 -0.6875 0.28125l-0.265625 0q-0.40625 0 -0.703125 -0.28125q-0.296875 -0.296875 -0.296875 -0.703125q0 -0.421875 0.296875 -0.703125q0.296875 -0.296875 0.703125 -0.296875zm11.251465 1.765625l-0.765625 0l-1.359375 -3.953125l-1.34375 3.953125l-0.765625 0l-1.265625 -5.71875l-0.296875 0q-0.234375 0 -0.328125 -0.078125q-0.09375 -0.09375 -0.09375 -0.234375q0 -0.140625 0.09375 -0.21875q0.09375 -0.09375 0.328125 -0.09375l1.6875 0q0.21875 0 0.3125 0.09375q0.09375 0.078125 0.09375 0.21875q0 0.140625 -0.09375 0.234375q-0.09375 0.078125 -0.3125 0.078125l-0.78125 0l1.078125 4.875l1.3125 -3.890625l0.734375 0l1.359375 3.890625l1.046875 -4.875l-0.78125 0q-0.21875 0 -0.328125 -0.078125q-0.09375 -0.09375 -0.09375 -0.234375q0 -0.140625 0.09375 -0.21875q0.09375 -0.09375 0.328125 -0.09375l1.6875 0q0.21875 0 0.3125 0.09375q0.09375 0.078125 0.09375 0.21875q0 0.140625 -0.09375 0.234375q-0.09375 0.078125 -0.3125 0.078125l-0.296875 0l-1.25 5.71875zm4.845215 -9.1875l0 3.78125q0.59375 -0.640625 1.125 -0.890625q0.546875 -0.265625 1.21875 -0.265625q0.703125 0 1.203125 0.25q0.515625 0.25 0.84375 0.78125q0.34375 0.515625 0.34375 1.09375l0 3.828125l0.6875 0q0.21875 0 0.3125 0.078125q0.09375 0.078125 0.09375 0.21875q0 0.140625 -0.09375 0.234375q-0.09375 0.078125 -0.3125 0.078125l-2.0 0q-0.234375 0 -0.328125 -0.078125q-0.09375 -0.09375 -0.09375 -0.234375q0 -0.140625 0.09375 -0.21875q0.09375 -0.078125 0.328125 -0.078125l0.6875 0l0 -3.78125q0 -0.65625 -0.484375 -1.109375q-0.46875 -0.453125 -1.328125 -0.453125q-0.671875 0 -1.15625 0.328125q-0.34375 0.234375 -1.140625 1.109375l0 3.90625l0.703125 0q0.21875 0 0.3125 0.078125q0.09375 0.078125 0.09375 0.21875q0 0.140625 -0.09375 0.234375q-0.09375 0.078125 -0.3125 0.078125l-2.0 0q-0.234375 0 -0.328125 -0.078125q-0.09375 -0.09375 -0.09375 -0.234375q0 -0.140625 0.09375 -0.21875q0.09375 -0.078125 0.328125 -0.078125l0.6875 0l0 -7.953125l-0.828125 0q-0.21875 0 -0.3125 -0.09375q-0.09375 -0.09375 -0.09375 -0.234375q0 -0.125 0.09375 -0.203125q0.09375 -0.09375 0.3125 -0.09375l1.4375 0zm14.36084 6.15625l-6.265625 0q0.15625 1.203125 1.0 1.9375q0.84375 0.71875 2.078125 0.71875q0.6875 0 1.4375 -0.21875q0.75 -0.234375 1.234375 -0.609375q0.140625 -0.109375 0.234375 -0.109375q0.125 0 0.203125 0.09375q0.09375 0.09375 0.09375 0.21875q0 0.125 -0.109375 0.234375q-0.359375 0.375 -1.265625 0.6875q-0.890625 0.3125 -1.828125 0.3125q-1.59375 0 -2.65625 -1.03125q-1.046875 -1.03125 -1.046875 -2.5q0 -1.34375 0.984375 -2.296875q1.0 -0.96875 2.46875 -0.96875q1.5 0 2.46875 0.984375q0.984375 0.984375 0.96875 2.546875zm-0.625 -0.609375q-0.171875 -1.03125 -0.953125 -1.65625q-0.78125 -0.640625 -1.859375 -0.640625q-1.078125 0 -1.859375 0.625q-0.765625 0.625 -0.96875 1.671875l5.640625 0zm5.563965 -2.703125l0 1.546875q1.203125 -1.078125 1.796875 -1.390625q0.59375 -0.3125 1.109375 -0.3125q0.546875 0 1.015625 0.375q0.46875 0.375 0.46875 0.5625q0 0.140625 -0.09375 0.234375q-0.09375 0.078125 -0.21875 0.078125q-0.078125 0 -0.140625 -0.015625q-0.046875 -0.03125 -0.1875 -0.171875q-0.25 -0.25 -0.4375 -0.34375q-0.1875 -0.09375 -0.375 -0.09375q-0.40625 0 -0.984375 0.328125q-0.5625 0.3125 -1.953125 1.5625l0 3.375l2.71875 0q0.234375 0 0.328125 0.078125q0.09375 0.078125 0.09375 0.21875q0 0.140625 -0.09375 0.234375q-0.09375 0.078125 -0.328125 0.078125l-4.828125 0q-0.21875 0 -0.3125 -0.078125q-0.09375 -0.09375 -0.09375 -0.21875q0 -0.125 0.09375 -0.203125q0.09375 -0.09375 0.3125 -0.09375l1.5 0l0 -5.125l-1.140625 0q-0.21875 0 -0.3125 -0.078125q-0.09375 -0.09375 -0.09375 -0.234375q0 -0.140625 0.078125 -0.21875q0.09375 -0.09375 0.328125 -0.09375l1.75 0zm13.063957 3.3125l-6.2656174 0q0.15625 1.203125 0.9999924 1.9375q0.84375 0.71875 2.078125 0.71875q0.6875 0 1.4375 -0.21875q0.75 -0.234375 1.234375 -0.609375q0.140625 -0.109375 0.234375 -0.109375q0.125 0 0.203125 0.09375q0.09375 0.09375 0.09375 0.21875q0 0.125 -0.109375 0.234375q-0.359375 0.375 -1.265625 0.6875q-0.890625 0.3125 -1.828125 0.3125q-1.59375 0 -2.65625 -1.03125q-1.0468674 -1.03125 -1.0468674 -2.5q0 -1.34375 0.9843674 -2.296875q1.0 -0.96875 2.46875 -0.96875q1.5 0 2.46875 0.984375q0.984375 0.984375 0.96875 2.546875zm-0.625 -0.609375q-0.171875 -1.03125 -0.953125 -1.65625q-0.78125 -0.640625 -1.859375 -0.640625q-1.078125 0 -1.859375 0.625q-0.7656174 0.625 -0.9687424 1.671875l5.6406174 0z" fill-rule="nonzero"></path><path fill="#cfe2f3" d="m279.6929 104.45145l0 0c0 -13.002609 28.519836 -23.543312 63.700806 -23.543312l0 0c35.18097 0 63.700775 10.540703 63.700775 23.543312l0 0c0 13.002609 -28.519806 23.543304 -63.700775 23.543304l0 0c-35.18097 0 -63.700806 -10.540695 -63.700806 -23.543304z" fill-rule="nonzero"></path><path stroke="#000000" stroke-width="2.0" stroke-linejoin="round" stroke-linecap="butt" d="m279.6929 104.45145l0 0c0 -13.002609 28.519836 -23.543312 63.700806 -23.543312l0 0c35.18097 0 63.700775 10.540703 63.700775 23.543312l0 0c0 13.002609 -28.519806 23.543304 -63.700775 23.543304l0 0c-35.18097 0 -63.700806 -10.540695 -63.700806 -23.543304z" fill-rule="nonzero"></path><path fill="#000000" d="m335.51764 110.152695q-0.9375 0.796875 -1.796875 1.125q-0.859375 0.3125 -1.84375 0.3125q-1.609375 0 -2.484375 -0.78125q-0.875 -0.796875 -0.875 -2.03125q0 -0.734375 0.328125 -1.328125q0.328125 -0.59375 0.859375 -0.953125q0.53125 -0.359375 1.203125 -0.546875q0.5 -0.140625 1.484375 -0.25q2.03125 -0.25 2.984375 -0.578125q0 -0.34375 0 -0.4375q0 -1.015625 -0.46875 -1.4375q-0.640625 -0.5625 -1.90625 -0.5625q-1.171875 0 -1.734375 0.40625q-0.5625 0.40625 -0.828125 1.46875l-1.640625 -0.234375q0.234375 -1.046875 0.734375 -1.6875q0.515625 -0.640625 1.46875 -0.984375q0.96875 -0.359375 2.25 -0.359375q1.265625 0 2.046875 0.296875q0.78125 0.296875 1.15625 0.75q0.375 0.453125 0.515625 1.140625q0.09375 0.421875 0.09375 1.53125l0 2.234375q0 2.328125 0.09375 2.953125q0.109375 0.609375 0.4375 1.171875l-1.75 0q-0.265625 -0.515625 -0.328125 -1.21875zm-0.140625 -3.71875q-0.90625 0.359375 -2.734375 0.625q-1.03125 0.140625 -1.453125 0.328125q-0.421875 0.1875 -0.65625 0.546875q-0.234375 0.359375 -0.234375 0.796875q0 0.671875 0.5 1.125q0.515625 0.4375 1.484375 0.4375q0.96875 0 1.71875 -0.421875q0.75 -0.4375 1.109375 -1.15625q0.265625 -0.578125 0.265625 -1.671875l0 -0.609375zm10.469452 4.9375l0 -1.25q-0.9375 1.46875 -2.75 1.46875q-1.171875 0 -2.171875 -0.640625q-0.984375 -0.65625 -1.53125 -1.8125q-0.53125 -1.171875 -0.53125 -2.6875q0 -1.46875 0.484375 -2.671875q0.5 -1.203125 1.46875 -1.84375q0.984375 -0.640625 2.203125 -0.640625q0.890625 0 1.578125 0.375q0.703125 0.375 1.140625 0.984375l0 -4.875l1.65625 0l0 13.59375l-1.546875 0zm-5.28125 -4.921875q0 1.890625 0.796875 2.828125q0.8125 0.9375 1.890625 0.9375q1.09375 0 1.859375 -0.890625q0.765625 -0.890625 0.765625 -2.734375q0 -2.015625 -0.78125 -2.953125q-0.78125 -0.953125 -1.921875 -0.953125q-1.109375 0 -1.859375 0.90625q-0.75 0.90625 -0.75 2.859375zm15.656982 4.921875l0 -1.25q-0.9375 1.46875 -2.75 1.46875q-1.171875 0 -2.171875 -0.640625q-0.984375 -0.65625 -1.53125 -1.8125q-0.53125 -1.171875 -0.53125 -2.6875q0 -1.46875 0.484375 -2.671875q0.5 -1.203125 1.46875 -1.84375q0.984375 -0.640625 2.203125 -0.640625q0.890625 0 1.578125 0.375q0.703125 0.375 1.140625 0.984375l0 -4.875l1.65625 0l0 13.59375l-1.546875 0zm-5.28125 -4.921875q0 1.890625 0.796875 2.828125q0.8125 0.9375 1.890625 0.9375q1.09375 0 1.859375 -0.890625q0.765625 -0.890625 0.765625 -2.734375q0 -2.015625 -0.78125 -2.953125q-0.78125 -0.953125 -1.921875 -0.953125q-1.109375 0 -1.859375 0.90625q-0.75 0.90625 -0.75 2.859375z" fill-rule="nonzero"></path><path fill="#cfe2f3" d="m279.6929 171.62073l0 0c0 -13.002609 28.519836 -23.543304 63.700806 -23.543304l0 0c35.18097 0 63.700775 10.540695 63.700775 23.543304l0 0c0 13.002609 -28.519806 23.54332 -63.700775 23.54332l0 0c-35.18097 0 -63.700806 -10.54071 -63.700806 -23.54332z" fill-rule="nonzero"></path><path stroke="#000000" stroke-width="2.0" stroke-linejoin="round" stroke-linecap="butt" d="m279.6929 171.62073l0 0c0 -13.002609 28.519836 -23.543304 63.700806 -23.543304l0 0c35.18097 0 63.700775 10.540695 63.700775 23.543304l0 0c0 13.002609 -28.519806 23.54332 -63.700775 23.54332l0 0c-35.18097 0 -63.700806 -10.54071 -63.700806 -23.54332z" fill-rule="nonzero"></path><path fill="#000000" d="m313.5237 178.54074l0 -9.859375l1.5 0l0 1.5q0.578125 -1.046875 1.0625 -1.375q0.484375 -0.34375 1.078125 -0.34375q0.84375 0 1.71875 0.546875l-0.578125 1.546875q-0.609375 -0.359375 -1.234375 -0.359375q-0.546875 0 -0.984375 0.328125q-0.421875 0.328125 -0.609375 0.90625q-0.28125 0.890625 -0.28125 1.953125l0 5.15625l-1.671875 0zm12.978302 -3.171875l1.71875 0.21875q-0.40625 1.5 -1.515625 2.34375q-1.09375 0.828125 -2.8125 0.828125q-2.15625 0 -3.421875 -1.328125q-1.265625 -1.328125 -1.265625 -3.734375q0 -2.484375 1.265625 -3.859375q1.28125 -1.375 3.328125 -1.375q1.984375 0 3.234375 1.34375q1.25 1.34375 1.25 3.796875q0 0.140625 -0.015625 0.4375l-7.34375 0q0.09375 1.625 0.921875 2.484375q0.828125 0.859375 2.0625 0.859375q0.90625 0 1.546875 -0.46875q0.65625 -0.484375 1.046875 -1.546875zm-5.484375 -2.703125l5.5 0q-0.109375 -1.234375 -0.625 -1.859375q-0.796875 -0.96875 -2.078125 -0.96875q-1.140625 0 -1.9375 0.78125q-0.78125 0.765625 -0.859375 2.046875zm9.110077 5.875l0 -9.859375l1.5 0l0 1.390625q0.453125 -0.71875 1.21875 -1.15625q0.78125 -0.453125 1.765625 -0.453125q1.09375 0 1.796875 0.453125q0.703125 0.453125 0.984375 1.28125q1.171875 -1.734375 3.046875 -1.734375q1.46875 0 2.25 0.8125q0.796875 0.8125 0.796875 2.5l0 6.765625l-1.671875 0l0 -6.203125q0 -1.0 -0.15625 -1.4375q-0.15625 -0.453125 -0.59375 -0.71875q-0.421875 -0.265625 -1.0 -0.265625q-1.03125 0 -1.71875 0.6875q-0.6875 0.6875 -0.6875 2.21875l0 5.71875l-1.671875 0l0 -6.40625q0 -1.109375 -0.40625 -1.65625q-0.40625 -0.5625 -1.34375 -0.5625q-0.703125 0 -1.3125 0.375q-0.59375 0.359375 -0.859375 1.078125q-0.265625 0.71875 -0.265625 2.0625l0 5.109375l-1.671875 0zm14.915802 -4.921875q0 -2.734375 1.53125 -4.0625q1.265625 -1.09375 3.09375 -1.09375q2.03125 0 3.3125 1.34375q1.296875 1.328125 1.296875 3.671875q0 1.90625 -0.578125 3.0q-0.5625 1.078125 -1.65625 1.6875q-1.078125 0.59375 -2.375 0.59375q-2.0625 0 -3.34375 -1.328125q-1.28125 -1.328125 -1.28125 -3.8125zm1.71875 0q0 1.890625 0.828125 2.828125q0.828125 0.9375 2.078125 0.9375q1.25 0 2.0625 -0.9375q0.828125 -0.953125 0.828125 -2.890625q0 -1.828125 -0.828125 -2.765625q-0.828125 -0.9375 -2.0625 -0.9375q-1.25 0 -2.078125 0.9375q-0.828125 0.9375 -0.828125 2.828125zm12.016357 4.921875l-3.75 -9.859375l1.765625 0l2.125 5.90625q0.34375 0.953125 0.625 1.984375q0.21875 -0.78125 0.625 -1.875l2.1875 -6.015625l1.71875 0l-3.734375 9.859375l-1.5625 0zm13.34375 -3.171875l1.71875 0.21875q-0.40625 1.5 -1.515625 2.34375q-1.09375 0.828125 -2.8125 0.828125q-2.15625 0 -3.421875 -1.328125q-1.265625 -1.328125 -1.265625 -3.734375q0 -2.484375 1.265625 -3.859375q1.28125 -1.375 3.328125 -1.375q1.984375 0 3.234375 1.34375q1.25 1.34375 1.25 3.796875q0 0.140625 -0.015625 0.4375l-7.34375 0q0.09375 1.625 0.921875 2.484375q0.828125 0.859375 2.0625 0.859375q0.90625 0 1.546875 -0.46875q0.65625 -0.484375 1.046875 -1.546875zm-5.484375 -2.703125l5.5 0q-0.109375 -1.234375 -0.625 -1.859375q-0.796875 -0.96875 -2.078125 -0.96875q-1.140625 0 -1.9375 0.78125q-0.78125 0.765625 -0.859375 2.046875z" fill-rule="nonzero"></path><path fill="#cfe2f3" d="m279.6929 238.79265l0 0c0 -13.002609 28.519836 -23.543304 63.700806 -23.543304l0 0c35.18097 0 63.700775 10.540695 63.700775 23.543304l0 0c0 13.002609 -28.519806 23.54332 -63.700775 23.54332l0 0c-35.18097 0 -63.700806 -10.54071 -63.700806 -23.54332z" fill-rule="nonzero"></path><path stroke="#000000" stroke-width="2.0" stroke-linejoin="round" stroke-linecap="butt" d="m279.6929 238.79265l0 0c0 -13.002609 28.519836 -23.543304 63.700806 -23.543304l0 0c35.18097 0 63.700775 10.540695 63.700775 23.543304l0 0c0 13.002609 -28.519806 23.54332 -63.700775 23.54332l0 0c-35.18097 0 -63.700806 -10.54071 -63.700806 -23.54332z" fill-rule="nonzero"></path><path fill="#000000" d="m322.5659 245.71265l0 -1.453125q-1.140625 1.671875 -3.125 1.671875q-0.859375 0 -1.625 -0.328125q-0.75 -0.34375 -1.125 -0.84375q-0.359375 -0.5 -0.515625 -1.234375q-0.09375 -0.5 -0.09375 -1.5625l0 -6.109375l1.671875 0l0 5.46875q0 1.3125 0.09375 1.765625q0.15625 0.65625 0.671875 1.03125q0.515625 0.375 1.265625 0.375q0.75 0 1.40625 -0.375q0.65625 -0.390625 0.921875 -1.046875q0.28125 -0.671875 0.28125 -1.9375l0 -5.28125l1.671875 0l0 9.859375l-1.5 0zm3.922577 3.78125l0 -13.640625l1.53125 0l0 1.28125q0.53125 -0.75 1.203125 -1.125q0.6875 -0.375 1.640625 -0.375q1.265625 0 2.234375 0.65625q0.96875 0.640625 1.453125 1.828125q0.5 1.1875 0.5 2.59375q0 1.515625 -0.546875 2.734375q-0.546875 1.203125 -1.578125 1.84375q-1.03125 0.640625 -2.171875 0.640625q-0.84375 0 -1.515625 -0.34375q-0.65625 -0.359375 -1.078125 -0.890625l0 4.796875l-1.671875 0zm1.515625 -8.65625q0 1.90625 0.765625 2.8125q0.78125 0.90625 1.875 0.90625q1.109375 0 1.890625 -0.9375q0.796875 -0.9375 0.796875 -2.921875q0 -1.875 -0.78125 -2.8125q-0.765625 -0.9375 -1.84375 -0.9375q-1.0625 0 -1.890625 1.0q-0.8125 1.0 -0.8125 2.890625zm15.250732 4.875l0 -1.25q-0.9375 1.46875 -2.75 1.46875q-1.171875 0 -2.171875 -0.640625q-0.984375 -0.65625 -1.53125 -1.8125q-0.53125 -1.171875 -0.53125 -2.6875q0 -1.46875 0.484375 -2.671875q0.5 -1.203125 1.46875 -1.84375q0.984375 -0.640625 2.203125 -0.640625q0.890625 0 1.578125 0.375q0.703125 0.375 1.140625 0.984375l0 -4.875l1.65625 0l0 13.59375l-1.546875 0zm-5.28125 -4.921875q0 1.890625 0.796875 2.828125q0.8125 0.9375 1.890625 0.9375q1.09375 0 1.859375 -0.890625q0.765625 -0.890625 0.765625 -2.734375q0 -2.015625 -0.78125 -2.953125q-0.78125 -0.953125 -1.921875 -0.953125q-1.109375 0 -1.859375 0.90625q-0.75 0.90625 -0.75 2.859375zm15.703827 3.703125q-0.9375 0.796875 -1.796875 1.125q-0.859375 0.3125 -1.84375 0.3125q-1.609375 0 -2.484375 -0.78125q-0.875 -0.796875 -0.875 -2.03125q0 -0.734375 0.328125 -1.328125q0.328125 -0.59375 0.859375 -0.953125q0.53125 -0.359375 1.203125 -0.546875q0.5 -0.140625 1.484375 -0.25q2.03125 -0.25 2.984375 -0.578125q0 -0.34375 0 -0.4375q0 -1.015625 -0.46875 -1.4375q-0.640625 -0.5625 -1.90625 -0.5625q-1.171875 0 -1.734375 0.40625q-0.5625 0.40625 -0.828125 1.46875l-1.640625 -0.234375q0.234375 -1.046875 0.734375 -1.6875q0.515625 -0.640625 1.46875 -0.984375q0.96875 -0.359375 2.25 -0.359375q1.265625 0 2.046875 0.296875q0.78125 0.296875 1.15625 0.75q0.375 0.453125 0.515625 1.140625q0.09375 0.421875 0.09375 1.53125l0 2.234375q0 2.328125 0.09375 2.953125q0.109375 0.609375 0.4375 1.171875l-1.75 0q-0.265625 -0.515625 -0.328125 -1.21875zm-0.140625 -3.71875q-0.90625 0.359375 -2.734375 0.625q-1.03125 0.140625 -1.453125 0.328125q-0.421875 0.1875 -0.65625 0.546875q-0.234375 0.359375 -0.234375 0.796875q0 0.671875 0.5 1.125q0.515625 0.4375 1.484375 0.4375q0.96875 0 1.71875 -0.421875q0.75 -0.4375 1.109375 -1.15625q0.265625 -0.578125 0.265625 -1.671875l0 -0.609375zm7.7351074 3.4375l0.234375 1.484375q-0.703125 0.140625 -1.265625 0.140625q-0.90625 0 -1.40625 -0.28125q-0.5 -0.296875 -0.703125 -0.75q-0.203125 -0.46875 -0.203125 -1.984375l0 -5.65625l-1.234375 0l0 -1.3125l1.234375 0l0 -2.4375l1.65625 -1.0l0 3.4375l1.6875 0l0 1.3125l-1.6875 0l0 5.75q0 0.71875 0.078125 0.921875q0.09375 0.203125 0.296875 0.328125q0.203125 0.125 0.578125 0.125q0.265625 0 0.734375 -0.078125zm8.277039 -1.671875l1.71875 0.21875q-0.40625 1.5 -1.515625 2.34375q-1.09375 0.828125 -2.8125 0.828125q-2.15625 0 -3.421875 -1.328125q-1.265625 -1.328125 -1.265625 -3.734375q0 -2.484375 1.265625 -3.859375q1.28125 -1.375 3.328125 -1.375q1.984375 0 3.234375 1.34375q1.25 1.34375 1.25 3.796875q0 0.140625 -0.015625 0.4375l-7.34375 0q0.09375 1.625 0.921875 2.484375q0.828125 0.859375 2.0625 0.859375q0.90625 0 1.546875 -0.46875q0.65625 -0.484375 1.046875 -1.546875zm-5.484375 -2.703125l5.5 0q-0.109375 -1.234375 -0.625 -1.859375q-0.796875 -0.96875 -2.078125 -0.96875q-1.140625 0 -1.9375 0.78125q-0.78125 0.765625 -0.859375 2.046875z" fill-rule="nonzero"></path><path fill="#000000" fill-opacity="0.0" d="m516.22833 173.42783c-27.283447 0 -40.92517 -17.244095 -54.566925 -34.48819c-13.641724 -17.244095 -27.283447 -34.48819 -54.566925 -34.48819" fill-rule="nonzero"></path><path stroke="#000000" stroke-width="2.0" stroke-linejoin="round" stroke-linecap="butt" d="m516.22833 173.42783c-27.283447 0 -40.92517 -17.244095 -54.566925 -34.48819c-6.820862 -8.622055 -13.641724 -17.244095 -22.167816 -23.710632c-4.263031 -3.2332687 -8.952362 -5.927658 -14.281158 -7.8137283c-1.3322144 -0.47151947 -2.7044067 -0.8925171 -4.1198425 -1.2587891c-0.35388184 -0.09156799 -0.7104492 -0.17971039 -1.0697937 -0.26437378c-0.17965698 -0.04233551 -0.35998535 -0.08378601 -0.54104614 -0.12436676l-0.4492798 -0.09812927" fill-rule="evenodd"></path><path fill="#000000" stroke="#000000" stroke-width="2.0" stroke-linecap="butt" d="m419.36786 102.383224l-9.364685 2.3650284l8.69397 4.2077713z" fill-rule="evenodd"></path><path fill="#000000" fill-opacity="0.0" d="m515.31494 173.44751l-108.22046 -1.8267822" fill-rule="nonzero"></path><path stroke="#000000" stroke-width="2.0" stroke-linejoin="round" stroke-linecap="butt" d="m515.31494 173.44751l-96.22217 -1.6242371" fill-rule="evenodd"></path><path fill="#000000" stroke="#000000" stroke-width="2.0" stroke-linecap="butt" d="m419.14853 168.52028l-9.130646 3.1497955l9.0191345 3.456192z" fill-rule="evenodd"></path><path fill="#000000" fill-opacity="0.0" d="m515.6063 171.62204c-27.128174 0 -40.69333 16.795288 -54.256348 33.59056c-13.562988 16.795273 -27.12381 33.590546 -54.24762 33.590546" fill-rule="nonzero"></path><path stroke="#000000" stroke-width="2.0" stroke-linejoin="round" stroke-linecap="butt" d="m515.6063 171.62204c-27.128174 0 -40.69336 16.795288 -54.256348 33.59056c-6.781494 8.397629 -13.562439 16.795273 -22.038513 23.093506c-4.2380066 3.149109 -8.899811 5.7733765 -14.197327 7.6103516c-1.3244019 0.45924377 -2.6885376 0.86927795 -4.0956726 1.2260284c-0.35180664 0.08918762 -0.7062988 0.17503357 -1.0635071 0.25749207c-0.17861938 0.041229248 -0.35791016 0.081604004 -0.5378723 0.12112427l-0.37506104 0.08026123" fill-rule="evenodd"></path><path fill="#000000" stroke="#000000" stroke-width="2.0" stroke-linecap="butt" d="m418.71118 234.3145l-8.699707 4.1958313l9.361389 2.377884z" fill-rule="evenodd"></path><path fill="#000000" fill-opacity="0.0" d="m279.6929 104.45145c-27.128143 0 -40.6933 16.795273 -54.2563 33.590546c-13.562988 16.795273 -27.12381 33.59056 -54.24762 33.59056" fill-rule="nonzero"></path><path stroke="#000000" stroke-width="2.0" stroke-linejoin="round" stroke-linecap="butt" d="m279.6929 104.45145c-27.128143 0 -40.693314 16.795273 -54.2563 33.590546c-6.781494 8.397644 -13.562454 16.795273 -22.038513 23.093506c-4.238022 3.149109 -8.899826 5.7733765 -14.197357 7.610367c-1.3243713 0.45924377 -2.688507 0.86927795 -4.0956573 1.2260132c-0.35179138 0.08918762 -0.70628357 0.17504883 -1.0635071 0.25749207c-0.17860413 0.041229248 -0.3578949 0.08161926 -0.5378876 0.12113953l-0.37503052 0.08024597" fill-rule="evenodd"></path><path fill="#000000" stroke="#000000" stroke-width="2.0" stroke-linecap="butt" d="m182.7978 167.14389l-8.699722 4.1958313l9.361404 2.377884z" fill-rule="evenodd"></path><path fill="#000000" fill-opacity="0.0" d="m279.6929 171.62073c-27.128143 0 -40.6933 0.01576233 -54.2563 0.0315094c-13.562988 0.01574707 -27.12381 0.03149414 -54.24762 0.03149414" fill-rule="nonzero"></path><path stroke="#000000" stroke-width="2.0" stroke-linejoin="round" stroke-linecap="butt" d="m279.6929 171.62073c-27.128143 0 -40.693314 0.01576233 -54.2563 0.0315094c-6.781494 0.007873535 -13.562454 0.01574707 -22.038513 0.021652222c-4.238022 0.0029449463 -8.899826 0.0054016113 -14.197357 0.0071258545l-6.0117493 9.0026855E-4" fill-rule="evenodd"></path><path fill="#000000" stroke="#000000" stroke-width="2.0" stroke-linecap="butt" d="m183.18848 168.37846l-9.075699 3.3048248l9.076691 3.3020935z" fill-rule="evenodd"></path><path fill="#000000" fill-opacity="0.0" d="m279.6929 238.79265c-27.128143 0 -40.6933 -16.795273 -54.2563 -33.590546c-13.562988 -16.795273 -27.12381 -33.59056 -54.24762 -33.59056" fill-rule="nonzero"></path><path stroke="#000000" stroke-width="2.0" stroke-linejoin="round" stroke-linecap="butt" d="m279.6929 238.79265c-27.128143 0 -40.693314 -16.795273 -54.2563 -33.590546c-6.781494 -8.397644 -13.562454 -16.795273 -22.038513 -23.093506c-4.238022 -3.149109 -8.899826 -5.7733765 -14.197357 -7.610367c-1.3243713 -0.45922852 -2.688507 -0.86927795 -4.0956573 -1.2260284c-0.35179138 -0.08917236 -0.70628357 -0.17503357 -1.0635071 -0.2574768c-0.17860413 -0.041244507 -0.3578949 -0.08161926 -0.5378876 -0.12112427l-0.37503052 -0.08026123" fill-rule="evenodd"></path><path fill="#000000" stroke="#000000" stroke-width="2.0" stroke-linecap="butt" d="m183.45949 169.52649l-9.361404 2.377884l8.699722 4.1958313z" fill-rule="evenodd"></path><path fill="#000000" fill-opacity="0.0" d="m271.70078 45.732285c-93.0551 0 -186.11023 44.83465 -186.11023 89.6693" fill-rule="nonzero"></path><path stroke="#000000" stroke-width="2.0" stroke-linejoin="round" stroke-linecap="butt" d="m271.70078 45.732285c-46.527542 0 -93.0551 11.20866 -127.950775 28.021652c-17.447838 8.406494 -31.987694 18.214073 -42.165604 28.722198c-5.088951 5.254059 -9.08741 10.68325 -11.813637 16.200012c-0.6815491 1.3791962 -1.2835922 2.763855 -1.8032837 4.152626c-0.064956665 0.17359161 -0.12863922 0.3472519 -0.19101715 0.5209732l-0.083465576 0.23744202" fill-rule="evenodd"></path><path fill="#000000" stroke="#000000" stroke-width="2.0" stroke-linecap="butt" d="m84.44063 123.00841l1.6621857 9.514587l4.842552 -8.357025z" fill-rule="evenodd"></path><path fill="#000000" fill-opacity="0.0" d="m107.47244 17.821522l93.291336 0l0 37.259842l-93.291336 0z" fill-rule="nonzero"></path><path fill="#000000" d="m117.73807 33.05402l0 -1.90625l1.671875 0l0 1.90625l-1.671875 0zm0 11.6875l0 -9.859375l1.671875 0l0 9.859375l-1.671875 0zm4.129196 0l0 -9.859375l1.5 0l0 1.40625q1.09375 -1.625 3.140625 -1.625q0.890625 0 1.640625 0.328125q0.75 0.3125 1.109375 0.84375q0.375 0.515625 0.53125 1.21875q0.09375 0.46875 0.09375 1.625l0 6.0625l-1.671875 0l0 -6.0q0 -1.015625 -0.203125 -1.515625q-0.1875 -0.515625 -0.6875 -0.8125q-0.5 -0.296875 -1.171875 -0.296875q-1.0625 0 -1.84375 0.671875q-0.765625 0.671875 -0.765625 2.578125l0 5.375l-1.671875 0zm10.391342 -11.6875l0 -1.90625l1.671875 0l0 1.90625l-1.671875 0zm0 11.6875l0 -9.859375l1.671875 0l0 9.859375l-1.671875 0zm7.785446 -1.5l0.234375 1.484375q-0.703125 0.140625 -1.265625 0.140625q-0.90625 0 -1.40625 -0.28125q-0.5 -0.296875 -0.703125 -0.75q-0.203125 -0.46875 -0.203125 -1.984375l0 -5.65625l-1.234375 0l0 -1.3125l1.234375 0l0 -2.4375l1.65625 -1.0l0 3.4375l1.6875 0l0 1.3125l-1.6875 0l0 5.75q0 0.71875 0.078125 0.921875q0.09375 0.203125 0.296875 0.328125q0.203125 0.125 0.578125 0.125q0.265625 0 0.734375 -0.078125zm1.5426788 -10.1875l0 -1.90625l1.671875 0l0 1.90625l-1.671875 0zm0 11.6875l0 -9.859375l1.671875 0l0 9.859375l-1.671875 0zm10.566696 -1.21875q-0.9375 0.796875 -1.796875 1.125q-0.859375 0.3125 -1.84375 0.3125q-1.609375 0 -2.484375 -0.78125q-0.875 -0.796875 -0.875 -2.03125q0 -0.734375 0.328125 -1.328125q0.328125 -0.59375 0.859375 -0.953125q0.53125 -0.359375 1.203125 -0.546875q0.5 -0.140625 1.484375 -0.25q2.03125 -0.25 2.984375 -0.578125q0 -0.34375 0 -0.4375q0 -1.015625 -0.46875 -1.4375q-0.640625 -0.5625 -1.90625 -0.5625q-1.171875 0 -1.734375 0.40625q-0.5625 0.40625 -0.828125 1.46875l-1.640625 -0.234375q0.234375 -1.046875 0.734375 -1.6875q0.515625 -0.640625 1.46875 -0.984375q0.96875 -0.359375 2.25 -0.359375q1.265625 0 2.046875 0.296875q0.78125 0.296875 1.15625 0.75q0.375 0.453125 0.515625 1.140625q0.09375 0.421875 0.09375 1.53125l0 2.234375q0 2.328125 0.09375 2.953125q0.109375 0.609375 0.4375 1.171875l-1.75 0q-0.265625 -0.515625 -0.328125 -1.21875zm-0.140625 -3.71875q-0.90625 0.359375 -2.734375 0.625q-1.03125 0.140625 -1.453125 0.328125q-0.421875 0.1875 -0.65625 0.546875q-0.234375 0.359375 -0.234375 0.796875q0 0.671875 0.5 1.125q0.515625 0.4375 1.484375 0.4375q0.96875 0 1.71875 -0.421875q0.75 -0.4375 1.109375 -1.15625q0.265625 -0.578125 0.265625 -1.671875l0 -0.609375zm4.047592 4.9375l0 -13.59375l1.671875 0l0 13.59375l-1.671875 0zm9.328125 0l0 -13.59375l1.671875 0l0 13.59375l-1.671875 0zm4.191696 -11.6875l0 -1.90625l1.671875 0l0 1.90625l-1.671875 0zm0 11.6875l0 -9.859375l1.671875 0l0 9.859375l-1.671875 0zm3.4573212 -2.9375l1.65625 -0.265625q0.140625 1.0 0.765625 1.53125q0.640625 0.515625 1.78125 0.515625q1.15625 0 1.703125 -0.46875q0.5625 -0.46875 0.5625 -1.09375q0 -0.5625 -0.484375 -0.890625q-0.34375 -0.21875 -1.703125 -0.5625q-1.84375 -0.46875 -2.5625 -0.796875q-0.703125 -0.34375 -1.078125 -0.9375q-0.359375 -0.609375 -0.359375 -1.328125q0 -0.65625 0.296875 -1.21875q0.3125 -0.5625 0.828125 -0.9375q0.390625 -0.28125 1.0625 -0.484375q0.671875 -0.203125 1.4375 -0.203125q1.171875 0 2.046875 0.34375q0.875 0.328125 1.28125 0.90625q0.421875 0.5625 0.578125 1.515625l-1.625 0.21875q-0.109375 -0.75 -0.65625 -1.171875q-0.53125 -0.4375 -1.5 -0.4375q-1.15625 0 -1.640625 0.390625q-0.484375 0.375 -0.484375 0.875q0 0.328125 0.203125 0.59375q0.203125 0.265625 0.640625 0.4375q0.25 0.09375 1.46875 0.4375q1.765625 0.46875 2.46875 0.765625q0.703125 0.296875 1.09375 0.875q0.40625 0.578125 0.40625 1.4375q0 0.828125 -0.484375 1.578125q-0.484375 0.734375 -1.40625 1.140625q-0.921875 0.390625 -2.078125 0.390625q-1.921875 0 -2.9375 -0.796875q-1.0 -0.796875 -1.28125 -2.359375zm13.65625 1.4375l0.234375 1.484375q-0.703125 0.140625 -1.265625 0.140625q-0.90625 0 -1.40625 -0.28125q-0.5 -0.296875 -0.703125 -0.75q-0.203125 -0.46875 -0.203125 -1.984375l0 -5.65625l-1.234375 0l0 -1.3125l1.234375 0l0 -2.4375l1.65625 -1.0l0 3.4375l1.6875 0l0 1.3125l-1.6875 0l0 5.75q0 0.71875 0.078125 0.921875q0.09375 0.203125 0.296875 0.328125q0.203125 0.125 0.578125 0.125q0.265625 0 0.734375 -0.078125z" fill-rule="nonzero"></path><path fill="#000000" fill-opacity="0.0" d="m85.59055 207.84251c0 62.042007 128.90552 124.076126 257.81104 124.084c128.90552 0.007873535 257.811 -62.010498 257.811 -124.020996" fill-rule="nonzero"></path><path stroke="#000000" stroke-width="4.0" stroke-linejoin="round" stroke-linecap="butt" d="m85.59055 207.84251c0 62.042007 128.90552 124.076126 257.81104 124.084c64.45276 0.0039367676 128.90552 -15.498688 177.24509 -38.7536c24.1698 -11.627472 44.31128 -25.192993 58.41028 -39.72734c3.5247803 -3.6335602 6.671875 -7.327713 9.409851 -11.0672455c1.3690186 -1.869751 2.6357422 -3.750885 3.7962036 -5.641449c0.58026123 -0.94529724 1.1339111 -1.8929443 1.6605835 -2.8427277c0.2633667 -0.4748993 0.51989746 -0.9503174 0.7696533 -1.426239c0.12487793 -0.23796082 0.24804688 -0.47605896 0.3694458 -0.7142639l0.28881836 -0.57481384" fill-rule="evenodd"></path><path fill="#000000" stroke="#000000" stroke-width="4.0" stroke-linecap="butt" d="m601.75836 232.79233l-1.9738159 -19.216263l-10.839905 15.989273z" fill-rule="evenodd"></path></g></svg>

